<?xml version="1.0" encoding="utf-8"?>
<!-- Generator: Adobe Illustrator 24.0.1, SVG Export Plug-In . SVG Version: 6.00 Build 0)  -->
<svg version="1.1" id="Layer_1" xmlns="http://www.w3.org/2000/svg" xmlns:xlink="http://www.w3.org/1999/xlink" x="0px" y="0px"
	 viewBox="0 0 512 512" style="enable-background:new 0 0 512 512;" xml:space="preserve">
<style type="text/css">
	.st0{fill:#233B5F;}
	.st1{fill:#FAA428;}
</style>
<path class="st0" d="M54.8,28.8c-12.1,0-22,9.9-22,22c0,12.1,9.9,22,22,22c12.1,0,22-9.9,22-22C76.8,38.7,66.9,28.8,54.8,28.8z
	 M54.8,57.8c-3.9,0-7-3.1-7-7c0-3.9,3.1-7,7-7c3.9,0,7,3.1,7,7C61.8,54.7,58.6,57.8,54.8,57.8z"/>
<path class="st0" d="M110.8,28.8c-12.1,0-22,9.9-22,22c0,12.1,9.9,22,22,22s22-9.9,22-22C132.8,38.7,123,28.8,110.8,28.8z
	 M110.8,57.8c-3.9,0-7-3.1-7-7c0-3.9,3.1-7,7-7c3.9,0,7,3.1,7,7C117.8,54.7,114.7,57.8,110.8,57.8z"/>
<path class="st0" d="M166.9,28.8c-12.1,0-22,9.9-22,22c0,12.1,9.9,22,22,22c12.1,0,22-9.9,22-22C188.9,38.7,179,28.8,166.9,28.8z
	 M166.9,57.8c-3.9,0-7-3.1-7-7c0-3.9,3.1-7,7-7c3.9,0,7,3.1,7,7C173.9,54.7,170.7,57.8,166.9,57.8z"/>
<path class="st0" d="M479,0H33C14.8,0,0,14.8,0,33v446c0,18.2,14.8,33,33,33h446c18.2,0,33-14.8,33-33V365.4c0-4.1-3.4-7.5-7.5-7.5
	c-4.1,0-7.5,3.4-7.5,7.5V479c0,9.9-8.1,18-18,18H33c-9.9,0-18-8.1-18-18V102h482v217c0,4.1,3.4,7.5,7.5,7.5c4.1,0,7.5-3.4,7.5-7.5
	V33C512,14.8,497.2,0,479,0z M497,87H15V33c0-9.9,8.1-18,18-18h446c9.9,0,18,8.1,18,18V87z"/>
<path class="st0" d="M67.2,408.3c-7.7,0-13.9-6.2-13.9-13.9V200.1c0-7.7,6.2-13.9,13.9-13.9s13.9,6.2,13.9,13.9v194.3
	C81.1,402.1,74.9,408.3,67.2,408.3z"/>
<path class="st1" d="M230.6,349.9c-3.4,0-6.8-1-9.7-2.9l-52.3-34.9c-8-5.3-10.2-16.2-4.8-24.2c1.3-1.9,2.9-3.6,4.8-4.8l52.3-34.9
	c8-5.3,18.8-3.2,24.2,4.8c5.3,8,3.2,18.8-4.8,24.2l-30.6,20.4l30.5,20.4c8,5.3,10.2,16.2,4.8,24.2
	C241.9,347,236.4,349.9,230.6,349.9z"/>
<path class="st1" d="M370.1,349.9c-9.6,0-17.4-7.8-17.5-17.4c0-5.8,2.9-11.3,7.8-14.5l30.6-20.4l-30.5-20.4
	c-8-5.3-10.2-16.2-4.8-24.2c5.3-8,16.2-10.2,24.2-4.8l0,0l52.3,34.9c8,5.3,10.2,16.2,4.8,24.2c-1.3,1.9-2.9,3.6-4.8,4.8L379.8,347
	C376.9,348.9,373.5,349.9,370.1,349.9z"/>
<path class="st1" d="M282.9,367.4c-9.6,0-17.4-7.8-17.4-17.4c0-1.9,0.3-3.7,0.9-5.5l34.9-104.6c3-9.1,12.9-14.1,22.1-11.1
	c9.1,3,14.1,12.9,11.1,22.1l-34.9,104.6C297.1,362.6,290.4,367.4,282.9,367.4z"/>
</svg>
