<?xml version="1.0" encoding="utf-8"?>
<!-- Generator: Adobe Illustrator 24.0.1, SVG Export Plug-In . SVG Version: 6.00 Build 0)  -->
<svg version="1.1" id="Layer_1" xmlns="http://www.w3.org/2000/svg" xmlns:xlink="http://www.w3.org/1999/xlink" x="0px" y="0px"
	 viewBox="0 0 600 600" style="enable-background:new 0 0 600 600;" xml:space="preserve">
<style type="text/css">
	.st0{fill:#FAA428;}
	.st1{fill:#233B5F;}
</style>
<g id="surface1">
	<path class="st0" d="M420,240.5h42.4v279H420V240.5z"/>
	<path class="st0" d="M190,237h184.8v279H190V237z"/>
	<path class="st1" d="M440,0H160c-16.6,0-30,13.4-30,30v540c0,16.6,13.4,30,30,30h280c16.6,0,30-13.4,30-30V30
		C470,13.4,456.6,0,440,0z M374.8,20l-4.3,10H229.4l-4.3-10H374.8z M440,580H160c-5.5,0-10-4.5-10-10V30c0-5.5,4.5-10,10-10h43.4
		l10.3,23.9c1.6,3.7,5.2,6.1,9.2,6.1h154.3c4,0,7.6-2.4,9.2-6.1L396.6,20H440c5.5,0,10,4.5,10,10v200h-30c-5.5,0-10,4.5-10,10v280
		c0,5.5,4.5,10,10,10h30v40C450,575.5,445.5,580,440,580z M450,250v260h-20V250H450z"/>
	<path class="st1" d="M390,520V240c0-5.5-4.5-10-10-10H180c-5.5,0-10,4.5-10,10v280c0,5.5,4.5,10,10,10h200
		C385.5,530,390,525.5,390,520z M370,510H190V250h180V510z"/>
	<path class="st1" d="M180,186h160v20H180V186z"/>
	<path class="st1" d="M350,186h80v20h-80V186z"/>
</g>
<circle class="st0" cx="212.4" cy="103.1" r="33.4"/>
<path class="st1" d="M248.1,126c12.6-19.7,6.9-46-12.8-58.6c-19.7-12.6-46-6.9-58.6,12.8c-10.8,16.8-8.4,38.8,5.7,52.9h0
	c14.1,14.1,36.1,16.5,52.9,5.7l18.4,18.3c3.4,3.6,9.1,3.8,12.8,0.4c3.6-3.4,3.8-9.1,0.4-12.8 M229.6,85.9c9.5,9.5,9.5,24.9,0,34.4
	c-9.5,9.5-24.9,9.5-34.4,0c-9.5-9.5-9.5-24.9,0-34.4C204.7,76.4,220.1,76.4,229.6,85.9z"/>
</svg>
