<?xml version="1.0" encoding="utf-8"?>
<!-- Generator: Adobe Illustrator 24.0.1, SVG Export Plug-In . SVG Version: 6.00 Build 0)  -->
<svg version="1.1" id="Layer_1" xmlns="http://www.w3.org/2000/svg" xmlns:xlink="http://www.w3.org/1999/xlink" x="0px" y="0px"
	 viewBox="0 0 512 512" style="enable-background:new 0 0 512 512;" xml:space="preserve">
<style type="text/css">
	.st0{fill:#FAA428;}
	.st1{fill:#233B5F;}
</style>
<path class="st0" d="M309.9,460.1h110.7c22.6,0,40.9-24.2,40.9-54s-18.3-54-40.9-54H309.9c-22.6,0-40.9,24.2-40.9,54
	S287.3,460.1,309.9,460.1z"/>
<path class="st0" d="M90.3,460.1H201c22.6,0,40.9-24.2,40.9-54s-18.3-54-40.9-54H90.3c-22.6,0-40.9,24.2-40.9,54
	S67.7,460.1,90.3,460.1z"/>
<path class="st1" d="M54.8,28.8c-12.1,0-22,9.9-22,22c0,12.1,9.9,22,22,22c12.1,0,22-9.9,22-22C76.8,38.7,66.9,28.8,54.8,28.8z
	 M54.8,57.8c-3.9,0-7-3.1-7-7c0-3.9,3.1-7,7-7c3.9,0,7,3.1,7,7C61.8,54.7,58.6,57.8,54.8,57.8z"/>
<path class="st1" d="M110.8,28.8c-12.1,0-22,9.9-22,22c0,12.1,9.9,22,22,22s22-9.9,22-22C132.8,38.7,123,28.8,110.8,28.8z
	 M110.8,57.8c-3.9,0-7-3.1-7-7c0-3.9,3.1-7,7-7c3.9,0,7,3.1,7,7C117.8,54.7,114.7,57.8,110.8,57.8z"/>
<path class="st1" d="M166.9,28.8c-12.1,0-22,9.9-22,22c0,12.1,9.9,22,22,22c12.1,0,22-9.9,22-22C188.9,38.7,179,28.8,166.9,28.8z
	 M166.9,57.8c-3.9,0-7-3.1-7-7c0-3.9,3.1-7,7-7c3.9,0,7,3.1,7,7C173.9,54.7,170.7,57.8,166.9,57.8z"/>
<path class="st1" d="M479,0H33C14.8,0,0,14.8,0,33v446c0,18.2,14.8,33,33,33h446c18.2,0,33-14.8,33-33V365.4c0-4.1-3.4-7.5-7.5-7.5
	c-4.1,0-7.5,3.4-7.5,7.5V479c0,9.9-8.1,18-18,18H33c-9.9,0-18-8.1-18-18V102h482v217c0,4.1,3.4,7.5,7.5,7.5c4.1,0,7.5-3.4,7.5-7.5
	V33C512,14.8,497.2,0,479,0z M497,87H15V33c0-9.9,8.1-18,18-18h446c9.9,0,18,8.1,18,18V87z"/>
<path class="st1" d="M461.5,154.9c0-13.1-10.6-23.7-23.7-23.7H73.1c-13.1,0-23.7,10.6-23.7,23.7V199c0,4.1,3.4,7.5,7.5,7.5
	c4.1,0,7.5-3.4,7.5-7.5v-44.1c0-4.8,3.9-8.7,8.7-8.7h364.6c4.8,0,8.7,3.9,8.7,8.7v137.3c0,4.8-3.9,8.7-8.7,8.7h-23.6l-76.9-86.7
	c-2.2-2.5-5.5-4-8.9-4.1c-3.4-0.1-6.7,1.2-9.1,3.6l-40.7,40.7l-54.9-61.8c-2.2-2.5-5.5-4-8.8-4.1c-3.4-0.1-6.7,1.2-9.1,3.6L96.9,301
	H73.1c-4.8,0-8.7-3.9-8.7-8.7v-45.9c0-4.1-3.4-7.5-7.5-7.5c-4.1,0-7.5,3.4-7.5,7.5v45.9c0,13.1,10.6,23.7,23.7,23.7h364.6
	c13.1,0,23.7-10.6,23.7-23.7V154.9z M118.1,301l96.3-96.2l73,82.3c2.8,3.1,7.5,3.4,10.6,0.6s3.4-7.5,0.6-10.6l-10-11.3l39.4-39.3
	l66.2,74.6H118.1z"/>
<path class="st1" d="M73.1,347c-13.1,0-23.7,10.6-23.7,23.7v73.6c0,13.1,10.6,23.7,23.7,23.7h145.1c13.1,0,23.7-10.6,23.7-23.7
	v-73.6c0-13.1-10.6-23.7-23.7-23.7H73.1z M226.9,370.7v73.6c0,4.8-3.9,8.7-8.7,8.7H73.1c-4.8,0-8.7-3.9-8.7-8.7v-73.6
	c0-4.8,3.9-8.7,8.7-8.7h145.1C223,362,226.9,365.9,226.9,370.7z"/>
<path class="st1" d="M292.7,347c-13.1,0-23.7,10.6-23.7,23.7v73.6c0,13.1,10.6,23.7,23.7,23.7h145.1c13.1,0,23.7-10.6,23.7-23.7
	v-73.6c0-13.1-10.6-23.7-23.7-23.7H292.7z M446.5,370.7v73.6c0,4.8-3.9,8.7-8.7,8.7H292.7c-4.8,0-8.7-3.9-8.7-8.7v-73.6
	c0-4.8,3.9-8.7,8.7-8.7h145.1C442.6,362,446.5,365.9,446.5,370.7z"/>
<path class="st0" d="M395.3,172.3c14.3,0,25.8,11.6,25.8,25.8c0,14.3-11.6,25.8-25.8,25.8s-24.8-11.6-24.8-25.8
	C370.5,183.9,381.1,172.3,395.3,172.3z"/>
<path class="st1" d="M378.2,225.5c15.2,9.8,35.5,5.3,45.3-9.9c9.8-15.2,5.3-35.5-9.9-45.3c-13-8.3-29-6.5-39.9,4.4v0
	c-10.9,10.9-12.7,27.9-4.4,40.9l-14.2,14.2c-2.8,2.6-3,7.1-0.3,9.9s7.1,3,9.9,0.3 M409.2,211.2c-7.3,7.3-19.2,7.3-26.6,0
	c-7.3-7.3-7.3-19.2,0-26.6c7.3-7.3,19.2-7.3,26.6,0C416.5,191.9,416.5,203.8,409.2,211.2z"/>
</svg>
