<?xml version="1.0" encoding="utf-8"?>
<!-- Generator: Adobe Illustrator 24.0.1, SVG Export Plug-In . SVG Version: 6.00 Build 0)  -->
<svg version="1.1" id="Layer_1" xmlns="http://www.w3.org/2000/svg" xmlns:xlink="http://www.w3.org/1999/xlink" x="0px" y="0px"
	 viewBox="0 0 512 512" style="enable-background:new 0 0 512 512;" xml:space="preserve">
<style type="text/css">
	.st0{fill:#233B5F;}
	.st1{fill:#FAA428;}
</style>
<path class="st0" d="M54.8,28.8c-12.1,0-22,9.9-22,22c0,12.1,9.9,22,22,22c12.1,0,22-9.9,22-22C76.8,38.7,66.9,28.8,54.8,28.8z
	 M54.8,57.8c-3.9,0-7-3.1-7-7c0-3.9,3.1-7,7-7c3.9,0,7,3.1,7,7C61.8,54.7,58.6,57.8,54.8,57.8z"/>
<path class="st0" d="M110.8,28.8c-12.1,0-22,9.9-22,22c0,12.1,9.9,22,22,22s22-9.9,22-22C132.8,38.7,123,28.8,110.8,28.8z
	 M110.8,57.8c-3.9,0-7-3.1-7-7c0-3.9,3.1-7,7-7c3.9,0,7,3.1,7,7C117.8,54.7,114.7,57.8,110.8,57.8z"/>
<path class="st0" d="M166.9,28.8c-12.1,0-22,9.9-22,22c0,12.1,9.9,22,22,22c12.1,0,22-9.9,22-22C188.9,38.7,179,28.8,166.9,28.8z
	 M166.9,57.8c-3.9,0-7-3.1-7-7c0-3.9,3.1-7,7-7c3.9,0,7,3.1,7,7C173.9,54.7,170.7,57.8,166.9,57.8z"/>
<path class="st0" d="M479,0H33C14.8,0,0,14.8,0,33v446c0,18.2,14.8,33,33,33h446c18.2,0,33-14.8,33-33V365.4c0-4.1-3.4-7.5-7.5-7.5
	c-4.1,0-7.5,3.4-7.5,7.5V479c0,9.9-8.1,18-18,18H33c-9.9,0-18-8.1-18-18V102h482v217c0,4.1,3.4,7.5,7.5,7.5c4.1,0,7.5-3.4,7.5-7.5
	V33C512,14.8,497.2,0,479,0z M497,87H15V33c0-9.9,8.1-18,18-18h446c9.9,0,18,8.1,18,18V87z"/>
<path class="st0" d="M461.5,154.9c0-13.1-10.6-23.7-23.7-23.7H73.1c-13.1,0-23.7,10.6-23.7,23.7V199c0,4.1,3.4,7.5,7.5,7.5
	c4.1,0,7.5-3.4,7.5-7.5v-44.1c0-4.8,3.9-8.7,8.7-8.7h364.6c4.8,0,8.7,3.9,8.7,8.7v137.3c0,4.8-3.9,8.7-8.7,8.7h-23.6l-76.9-86.7
	c-2.2-2.5-5.5-4-8.9-4.1c-3.4-0.1-6.7,1.2-9.1,3.6l-40.7,40.7l-54.9-61.8c-2.2-2.5-5.5-4-8.8-4.1c-3.4-0.1-6.7,1.2-9.1,3.6L96.9,301
	H73.1c-4.8,0-8.7-3.9-8.7-8.7v-45.9c0-4.1-3.4-7.5-7.5-7.5c-4.1,0-7.5,3.4-7.5,7.5v45.9c0,13.1,10.6,23.7,23.7,23.7h364.6
	c13.1,0,23.7-10.6,23.7-23.7V154.9z M118.1,301l96.3-96.2l73,82.3c2.8,3.1,7.5,3.4,10.6,0.6s3.4-7.5,0.6-10.6l-10-11.3l39.4-39.3
	l66.2,74.6H118.1z"/>
<path class="st0" d="M73.1,337c-13.1,0-23.7,10.6-23.7,23.7v73.6c0,13.1,10.6,23.7,23.7,23.7h145.1c13.1,0,23.7-10.6,23.7-23.7
	v-73.6c0-13.1-10.6-23.7-23.7-23.7H73.1z M226.9,360.7v73.6c0,4.8-3.9,8.7-8.7,8.7H73.1c-4.8,0-8.7-3.9-8.7-8.7v-73.6
	c0-4.8,3.9-8.7,8.7-8.7h145.1C223,352,226.9,355.9,226.9,360.7z"/>
<path class="st0" d="M292.7,337c-13.1,0-23.7,10.6-23.7,23.7v73.6c0,13.1,10.6,23.7,23.7,23.7h145.1c13.1,0,23.7-10.6,23.7-23.7
	v-73.6c0-13.1-10.6-23.7-23.7-23.7H292.7z M446.5,360.7v73.6c0,4.8-3.9,8.7-8.7,8.7H292.7c-4.8,0-8.7-3.9-8.7-8.7v-73.6
	c0-4.8,3.9-8.7,8.7-8.7h145.1C442.6,352,446.5,355.9,446.5,360.7z"/>
<path class="st1" d="M87.7,380.3h20.3c4.1,0,7.5-3.4,7.5-7.5s-3.4-7.5-7.5-7.5H87.7c-4.1,0-7.5,3.4-7.5,7.5S83.5,380.3,87.7,380.3z"
	/>
<path class="st1" d="M87.7,405.7h10.5c4.1,0,7.5-3.4,7.5-7.5s-3.4-7.5-7.5-7.5H87.7c-4.1,0-7.5,3.4-7.5,7.5S83.5,405.7,87.7,405.7z"
	/>
<path class="st1" d="M203.7,390.7h-28c-4.1,0-7.5,3.4-7.5,7.5s3.4,7.5,7.5,7.5h28c4.1,0,7.5-3.4,7.5-7.5S207.8,390.7,203.7,390.7z"
	/>
<path class="st1" d="M133.7,380.3h68c4.1,0,7.5-3.4,7.5-7.5s-3.4-7.5-7.5-7.5h-68c-4.1,0-7.5,3.4-7.5,7.5S129.5,380.3,133.7,380.3z"
	/>
<path class="st1" d="M201.7,414.7h-20.3c-4.1,0-7.5,3.4-7.5,7.5s3.4,7.5,7.5,7.5h20.3c4.1,0,7.5-3.4,7.5-7.5
	S205.8,414.7,201.7,414.7z"/>
<path class="st1" d="M155.7,414.7h-68c-4.1,0-7.5,3.4-7.5,7.5s3.4,7.5,7.5,7.5h68c4.1,0,7.5-3.4,7.5-7.5S159.8,414.7,155.7,414.7z"
	/>
<path class="st1" d="M121.5,405.7h29.2c4.1,0,7.5-3.4,7.5-7.5s-3.4-7.5-7.5-7.5h-29.2c-4.1,0-7.5,3.4-7.5,7.5
	S117.3,405.7,121.5,405.7z"/>
<path class="st1" d="M307.2,380.3h20.3c4.1,0,7.5-3.4,7.5-7.5s-3.4-7.5-7.5-7.5h-20.3c-4.1,0-7.5,3.4-7.5,7.5
	S303.1,380.3,307.2,380.3z"/>
<path class="st1" d="M307.2,405.7h10.5c4.1,0,7.5-3.4,7.5-7.5s-3.4-7.5-7.5-7.5h-10.5c-4.1,0-7.5,3.4-7.5,7.5
	S303.1,405.7,307.2,405.7z"/>
<path class="st1" d="M423.2,390.7h-28c-4.1,0-7.5,3.4-7.5,7.5s3.4,7.5,7.5,7.5h28c4.1,0,7.5-3.4,7.5-7.5S427.4,390.7,423.2,390.7z"
	/>
<path class="st1" d="M353.2,380.3h68c4.1,0,7.5-3.4,7.5-7.5s-3.4-7.5-7.5-7.5h-68c-4.1,0-7.5,3.4-7.5,7.5S349.1,380.3,353.2,380.3z"
	/>
<path class="st1" d="M421.2,414.7h-20.3c-4.1,0-7.5,3.4-7.5,7.5s3.4,7.5,7.5,7.5h20.3c4.1,0,7.5-3.4,7.5-7.5
	S425.4,414.7,421.2,414.7z"/>
<path class="st1" d="M375.2,414.7h-68c-4.1,0-7.5,3.4-7.5,7.5s3.4,7.5,7.5,7.5h68c4.1,0,7.5-3.4,7.5-7.5S379.4,414.7,375.2,414.7z"
	/>
<path class="st1" d="M341,405.7h29.2c4.1,0,7.5-3.4,7.5-7.5s-3.4-7.5-7.5-7.5H341c-4.1,0-7.5,3.4-7.5,7.5S336.9,405.7,341,405.7z"/>
<path class="st1" d="M409.3,186.8c0-15.8-12.8-28.6-28.6-28.6c-15.8,0-28.6,12.8-28.6,28.6c0,15.8,12.8,28.6,28.6,28.6
	C396.5,215.4,409.3,202.5,409.3,186.8z M367.2,186.8c0-7.5,6.1-13.6,13.6-13.6s13.6,6.1,13.6,13.6s-6.1,13.6-13.6,13.6
	S367.2,194.3,367.2,186.8z"/>
</svg>
